<svg xmlns="http://www.w3.org/2000/svg" width='16' height='16'  viewBox="0 0 1039.6 288" id="kia">
  <path d="M80.2 52.7C35.3 79.5 30.6 82.9 25.5 92.5l-2.8 5.4-.3 73.5c-.2 72.4-.2 73.5 1.8 76.8 1.7 2.4 4.1 4.3 6.8 5.5 4.7 2.2 5.3 2.2 59.7 2.2 44.1 0 55.8-.3 59-1.4 2.2-.7 29.6-16.7 60.8-35.4l56.8-34.1 9.2 9c5.1 4.9 20.9 20.5 35.2 34.6s27.3 26.2 28.8 26.8c3 1.1 107.2 1.5 110.1.4.8-.2 1.5-.9 1.6-1.8 0-.6-24.8-25.9-55.1-56.2-38-38-55-55.7-54.6-56.7.8-2.1 150.7-91.9 152.3-91.3 1.1.4 1.4 18.1 1.6 97.3.3 92 .4 97 2.2 100.5 1.3 2.4 3.2 4.5 5.5 6 2.4 1.5 5.1 2.3 7.9 2.3l73.2.3c79 .3 86.6 0 93.4-3.5 1.7-.9 54.2-34.7 116.6-75.1s114.1-73.5 115-73.6c1.3-.1 1.6 8.6 2 77.9l.5 78 2.1.3c3.2.5 90.8-52.6 95.6-57.9 6.9-7.6 6.8-5.8 6.8-87.4V41.8l-2.2-4.4c-4.1-8.1-3.5-8-49.8-8-37.7 0-40.8.2-44.7 2-2.3 1-74.3 47.2-160 102.6-85.7 55.5-156.7 100.8-157.8 100.8-2 .1-2-.7-2.5-96.4-.5-94-.6-96.6-2.5-100.4-1.2-2.3-2.8-4.3-4.8-6-2.8-2.1-3.5-2.1-87.5-2.1h-84.7l-6.5 3.6c-3.6 2-68.9 41-145.2 86.7-76.3 45.8-139.2 83.2-139.8 83.2-.5 0-1.1-.1-1.2-.3-.2-.1-.5-39.6-.8-87.7-.5-86.6-.5-87.5-2.5-87.7-1.1-.2-20.6 10.8-44.5 25z"></path>
</svg>
